<svg width="209" height="209" viewBox="0 0 209 209" fill="none" xmlns="http://www.w3.org/2000/svg">
<g filter="url(#filter0_d_509_3)">
<path d="M69.8333 91.9701C75.8616 91.9701 81.7544 90.1825 86.7667 86.8334C91.7789 83.4843 95.6855 78.7241 97.9924 73.1548C100.299 67.5855 100.903 61.4571 99.7269 55.5447C98.5508 49.6324 95.648 44.2015 91.3854 39.9389C87.1228 35.6763 81.6919 32.7735 75.7795 31.5974C69.8672 30.4214 63.7388 31.025 58.1695 33.3319C52.6001 35.6387 47.8399 39.5453 44.4908 44.5576C41.1417 49.5699 39.3542 55.4627 39.3542 61.4909C39.3542 69.5745 42.5654 77.327 48.2813 83.043C53.9973 88.7589 61.7498 91.9701 69.8333 91.9701V91.9701ZM69.8333 48.4284C72.4169 48.4284 74.9424 49.1945 77.0905 50.6299C79.2386 52.0652 80.9128 54.1053 81.9015 56.4921C82.8902 58.879 83.1489 61.5054 82.6448 64.0393C82.1408 66.5732 80.8967 68.9007 79.0699 70.7275C77.2431 72.5543 74.9156 73.7984 72.3817 74.3024C69.8478 74.8065 67.2214 74.5478 64.8345 73.5591C62.4477 72.5704 60.4076 70.8962 58.9723 68.7481C57.5369 66.5999 56.7708 64.0744 56.7708 61.4909C56.7708 58.0265 58.1471 54.704 60.5968 52.2543C63.0465 49.8047 66.369 48.4284 69.8333 48.4284V48.4284ZM139.5 118.095C133.472 118.095 127.579 119.883 122.567 123.232C117.554 126.581 113.648 131.341 111.341 136.91C109.034 142.48 108.43 148.608 109.606 154.52C110.783 160.433 113.685 165.864 117.948 170.126C122.211 174.389 127.641 177.292 133.554 178.468C139.466 179.644 145.595 179.04 151.164 176.733C156.733 174.426 161.493 170.52 164.842 165.508C168.192 160.495 169.979 154.602 169.979 148.574C169.979 140.491 166.768 132.738 161.052 127.022C155.336 121.306 147.584 118.095 139.5 118.095V118.095ZM139.5 161.637C136.916 161.637 134.391 160.871 132.243 159.435C130.095 158 128.42 155.96 127.432 153.573C126.443 151.186 126.184 148.56 126.688 146.026C127.193 143.492 128.437 141.165 130.263 139.338C132.09 137.511 134.418 136.267 136.952 135.763C139.486 135.259 142.112 135.517 144.499 136.506C146.886 137.495 148.926 139.169 150.361 141.317C151.796 143.465 152.563 145.991 152.563 148.574C152.563 152.039 151.186 155.361 148.737 157.811C146.287 160.261 142.964 161.637 139.5 161.637ZM172.069 33.2759C171.349 32.5545 170.494 31.9821 169.553 31.5916C168.611 31.201 167.602 31 166.583 31C165.564 31 164.555 31.201 163.613 31.5916C162.672 31.9821 161.817 32.5545 161.097 33.2759L37.2642 157.108C35.8273 158.575 35.0156 160.542 35 162.595C34.9977 164.129 35.451 165.63 36.3024 166.907C37.1539 168.183 38.3652 169.179 39.7829 169.766C41.2005 170.354 42.7607 170.507 44.2657 170.207C45.7707 169.907 47.1527 169.167 48.2367 168.081L172.069 44.2484C172.791 43.5285 173.363 42.6734 173.754 41.732C174.144 40.7906 174.345 39.7814 174.345 38.7622C174.345 37.743 174.144 36.7338 173.754 35.7924C173.363 34.851 172.791 33.9958 172.069 33.2759Z" fill="white"/>
</g>
<defs>
<filter id="filter0_d_509_3" x="35" y="31" width="151.345" height="160.053" filterUnits="userSpaceOnUse" color-interpolation-filters="sRGB">
<feFlood flood-opacity="0" result="BackgroundImageFix"/>
<feColorMatrix in="SourceAlpha" type="matrix" values="0 0 0 0 0 0 0 0 0 0 0 0 0 0 0 0 0 0 127 0" result="hardAlpha"/>
<feOffset dx="8" dy="8"/>
<feGaussianBlur stdDeviation="2"/>
<feComposite in2="hardAlpha" operator="out"/>
<feColorMatrix type="matrix" values="0 0 0 0 0 0 0 0 0 0 0 0 0 0 0 0 0 0 0.25 0"/>
<feBlend mode="normal" in2="BackgroundImageFix" result="effect1_dropShadow_509_3"/>
<feBlend mode="normal" in="SourceGraphic" in2="effect1_dropShadow_509_3" result="shape"/>
</filter>
</defs>
</svg>
