<svg width="505" height="139" viewBox="0 0 505 139" fill="none" xmlns="http://www.w3.org/2000/svg">
<g clip-path="url(#clip0_702_2)">
<path d="M275.301 61.57H262.001L259.281 69.18H249.631L264.101 29.46H274.321L288.791 69.18H278.001L275.301 61.57ZM264.921 53.74H272.411L268.661 41.94L264.921 53.74Z" fill="#231F20"/>
<path d="M216.231 100.515C215.665 100.548 215.099 100.468 214.565 100.279C214.031 100.089 213.541 99.7942 213.122 99.4119C212.384 98.5208 211.985 97.3964 212 96.2386C212.015 95.0812 212.441 93.9668 213.203 93.0949C214.308 92.2777 215.673 91.8926 217.043 92.0121H220.482V90.6184C220.517 90.2356 220.477 89.8495 220.362 89.4828C220.246 89.116 220.059 88.776 219.811 88.4827C219.257 88.003 218.535 87.7616 217.805 87.8108C217.09 87.7421 216.375 87.9423 215.8 88.3724C215.437 88.6911 215.207 89.1352 215.158 89.6157H212.812C212.863 89.081 212.995 88.557 213.203 88.0615C213.395 87.584 213.702 87.1607 214.095 86.8283C214.542 86.4616 215.057 86.1856 215.609 86.0161C216.331 85.7999 217.082 85.6985 217.835 85.7153C219.201 85.6086 220.553 86.0404 221.605 86.9185C222.043 87.4219 222.375 88.0075 222.583 88.6411C222.791 89.2747 222.872 89.9435 222.818 90.6083V100.344H220.722V97.9477C220.533 98.2724 220.322 98.5836 220.091 98.8806C219.842 99.2019 219.544 99.483 219.209 99.7122C218.824 99.9716 218.402 100.168 217.956 100.295C217.394 100.452 216.814 100.526 216.231 100.515ZM216.912 98.4389C217.393 98.474 217.875 98.4045 218.325 98.2355C218.776 98.0665 219.186 97.8022 219.525 97.46C219.864 97.1178 220.125 96.7069 220.29 96.2546C220.456 95.8023 220.521 95.3196 220.482 94.8396V93.9372H217.153C216.389 93.8643 215.624 94.0593 214.987 94.4887C214.764 94.7232 214.594 95.0032 214.489 95.3094C214.382 95.6157 214.345 95.941 214.376 96.2634C214.361 96.5495 214.409 96.835 214.515 97.1019C214.62 97.3679 214.781 97.6089 214.987 97.8072C215.513 98.2556 216.193 98.4824 216.882 98.4389H216.912Z" fill="#1A182B"/>
<path d="M226.77 85.9157H232.173C232.955 85.9014 233.735 85.996 234.49 86.1965C235.078 86.3571 235.628 86.6369 236.104 87.0187C236.536 87.3481 236.88 87.7785 237.107 88.2721C237.315 88.7775 237.421 89.3195 237.418 89.8663C237.413 90.5116 237.205 91.139 236.826 91.6611C236.454 92.2187 235.902 92.6325 235.262 92.8342C236.058 93.0002 236.769 93.4445 237.267 94.0876C237.725 94.7116 237.966 95.4693 237.949 96.2433C237.975 96.8057 237.876 97.3679 237.659 97.8875C237.443 98.4079 237.114 98.8731 236.696 99.2512C235.559 100.091 234.155 100.49 232.745 100.374H226.8L226.77 85.9157ZM232.173 91.992C232.938 92.0626 233.704 91.8755 234.35 91.4605C234.556 91.2682 234.721 91.0354 234.833 90.7766C234.946 90.5179 235.004 90.2388 235.004 89.9566C235.004 89.6744 234.946 89.3952 234.833 89.1364C234.721 88.8777 234.556 88.6449 234.35 88.4525C233.706 88.0324 232.938 87.8449 232.173 87.9211H229.166V91.9318L232.173 91.992ZM232.715 98.3192C233.484 98.3937 234.254 98.1954 234.891 97.757C235.112 97.5511 235.283 97.2985 235.393 97.0174C235.502 96.7362 235.546 96.4338 235.523 96.133C235.538 95.8404 235.491 95.5478 235.381 95.2758C235.272 95.0039 235.105 94.7591 234.891 94.5588C234.253 94.1255 233.483 93.9303 232.715 94.0074H229.146V98.3192H232.715Z" fill="#1A182B"/>
<path d="M244.378 88.0014H239.775V85.9159H251.386V88.0114H246.784V100.354H244.378V88.0014Z" fill="#1A182B"/>
<path d="M259.205 100.545C258.407 100.582 257.61 100.454 256.865 100.167C256.119 99.8804 255.441 99.442 254.874 98.8806C253.72 97.537 253.143 95.7933 253.269 94.0275V91.9319C253.255 91.0383 253.397 90.1492 253.691 89.3049C253.943 88.5603 254.35 87.8771 254.884 87.2995C255.416 86.7604 256.059 86.3431 256.769 86.0763C258.352 85.5149 260.078 85.5149 261.661 86.0763C262.363 86.3456 263 86.7628 263.526 87.2995C264.067 87.8739 264.477 88.5578 264.729 89.3049C265.023 90.1492 265.165 91.0383 265.151 91.9319V94.0074C265.272 95.7727 264.696 97.5152 263.546 98.8606C262.979 99.4261 262.3 99.8679 261.553 100.158C260.805 100.448 260.006 100.58 259.205 100.545ZM259.205 98.4188C259.683 98.4481 260.161 98.3736 260.608 98.2004C261.054 98.0273 261.458 97.7595 261.792 97.4165C262.533 96.4649 262.891 95.27 262.794 94.0676V91.9319C262.869 90.8119 262.51 89.7061 261.792 88.8436C261.091 88.1859 260.166 87.8198 259.205 87.8198C258.244 87.8198 257.319 88.1859 256.618 88.8436C255.921 89.7155 255.581 90.819 255.666 91.9319V94.0074C255.56 95.203 255.899 96.3955 256.618 97.3563C256.947 97.7093 257.348 97.9871 257.795 98.1703C258.242 98.3544 258.723 98.4389 259.205 98.4188Z" fill="#1A182B"/>
<path d="M268.611 85.9159H271.119L275.921 94.9399L280.684 85.9159H283.06V100.354H280.744V89.8563L276.984 97.076H274.688L270.928 89.8563V100.354H268.611V85.9159Z" fill="#1A182B"/>
<path d="M292.433 100.545C291.633 100.583 290.834 100.455 290.087 100.169C289.34 99.8821 288.659 99.4437 288.091 98.8807C286.942 97.5353 286.365 95.7928 286.487 94.0274V91.9319C286.472 91.0383 286.615 90.1492 286.907 89.3049C287.16 88.5579 287.571 87.8739 288.111 87.2995C288.638 86.7583 289.278 86.3405 289.986 86.0763C290.773 85.8085 291.602 85.6861 292.433 85.7153C293.267 85.7027 294.097 85.8455 294.879 86.1364C295.585 86.4033 296.225 86.8207 296.754 87.3597C297.288 87.9372 297.694 88.6204 297.947 89.3651C298.261 90.1855 298.431 91.0538 298.448 91.9319V94.0074C298.574 95.7733 297.997 97.5169 296.844 98.8606C296.269 99.4362 295.578 99.8838 294.819 100.174C294.058 100.464 293.245 100.591 292.433 100.545ZM292.433 98.4188C292.91 98.4464 293.388 98.3711 293.835 98.198C294.281 98.0256 294.685 97.7587 295.02 97.4165C295.738 96.4556 296.078 95.2631 295.972 94.0676V91.9319C296.056 90.8191 295.716 89.7155 295.02 88.8437C294.316 88.1875 293.39 87.8225 292.428 87.8225C291.465 87.8225 290.539 88.1875 289.836 88.8437C289.139 89.7155 288.798 90.8191 288.883 91.9319V94.0074C288.777 95.2029 289.116 96.3954 289.836 97.3563C290.167 97.7094 290.57 97.988 291.018 98.1712C291.466 98.3544 291.949 98.4389 292.433 98.4188Z" fill="#1A182B"/>
<path d="M307.184 100.545C306.374 100.577 305.568 100.432 304.821 100.118C304.075 99.8051 303.405 99.3307 302.862 98.73C301.78 97.5135 301.238 95.6183 301.238 93.0448V91.0395C301.238 89.756 301.288 88.5127 301.398 87.3195C301.488 86.2218 301.751 85.1454 302.18 84.131C302.579 83.1363 303.274 82.2881 304.171 81.7017C305.068 81.1152 306.123 80.8186 307.194 80.8523L309.028 80.7419C309.55 80.7019 310.001 80.6517 310.382 80.5916C310.764 80.5214 311.104 80.4512 311.385 80.3609C311.706 80.2671 312.018 80.1463 312.317 80V82.3162C312.15 82.4159 311.972 82.4966 311.786 82.5568C311.506 82.6332 311.221 82.6902 310.933 82.7273C310.583 82.7875 310.132 82.8376 309.581 82.8877C309.028 82.9378 308.336 82.998 307.515 83.0582C306.84 83.0641 306.175 83.2326 305.58 83.5495C305.085 83.8256 304.663 84.2136 304.346 84.6825C304.013 85.1659 303.782 85.7115 303.665 86.2867C303.518 86.9259 303.431 87.5769 303.404 88.2319C303.832 87.5837 304.392 87.0334 305.048 86.6176C305.768 86.157 306.61 85.923 307.465 85.9459C308.257 85.9347 309.043 86.0777 309.78 86.367C310.454 86.6366 311.063 87.0468 311.565 87.5702C312.078 88.1084 312.474 88.7467 312.729 89.4452C313.006 90.2375 313.142 91.0725 313.13 91.9118V93.9873C313.255 95.7532 312.679 97.4968 311.526 98.8405C310.96 99.4102 310.282 99.857 309.534 100.151C308.787 100.443 307.986 100.578 307.184 100.545ZM307.184 98.4188C307.661 98.4456 308.14 98.3703 308.586 98.1971C309.032 98.0247 309.436 97.7579 309.77 97.4165C310.49 96.4555 310.829 95.2631 310.723 94.0675V91.9319C310.795 90.8909 310.453 89.8636 309.77 89.0742C309.056 88.4413 308.134 88.0918 307.178 88.0918C306.224 88.0918 305.302 88.4413 304.587 89.0742C303.905 89.8636 303.562 90.8909 303.634 91.9319V94.0073C303.528 95.2029 303.868 96.3954 304.587 97.3563C304.918 97.7093 305.321 97.9879 305.77 98.1712C306.217 98.3544 306.7 98.4389 307.184 98.4188Z" fill="#1A182B"/>
<path d="M316.588 85.9159H318.905V96.9455L325.632 85.9159H328.028V100.354H325.712V89.325L318.984 100.354H316.588V85.9159Z" fill="#1A182B"/>
<path d="M330.816 98.0582C331.302 98.0106 331.767 97.8416 332.17 97.5671C332.568 97.2777 332.872 96.8761 333.043 96.4139C333.295 95.7714 333.453 95.096 333.514 94.4085C333.611 93.429 333.654 92.4449 333.644 91.4606V85.9159H343.159V100.354H340.733V88.0014H336.02V91.4907C336.032 92.8333 335.935 94.1746 335.729 95.5015C335.594 96.4901 335.284 97.4475 334.817 98.3293C334.445 99.0145 333.889 99.5843 333.213 99.9733C332.474 100.358 331.649 100.548 330.816 100.525V98.0582Z" fill="#1A182B"/>
<path d="M347.252 85.9159H349.588V96.9455L356.315 85.9159H358.712V100.354H356.396V89.325L349.668 100.354H347.272L347.252 85.9159Z" fill="#1A182B"/>
<path d="M372.389 100.114C371.69 99.8461 371.065 99.4169 370.565 98.8606C370.043 98.2766 369.644 97.5947 369.391 96.8551C369.096 95.9524 368.954 95.007 368.97 94.0575V91.9319C368.956 91.0383 369.098 90.1491 369.391 89.3049C369.641 88.5633 370.04 87.8807 370.565 87.2995C371.075 86.7619 371.698 86.3441 372.389 86.0762C373.151 85.7879 373.961 85.6451 374.775 85.6552C375.479 85.6479 376.178 85.7494 376.851 85.9559C377.46 86.1425 378.032 86.4381 378.535 86.8282C379.023 87.2022 379.432 87.6691 379.738 88.2019C380.054 88.7496 380.249 89.3579 380.31 89.9867H377.884C377.721 89.3761 377.37 88.8324 376.881 88.4325C376.185 87.9503 375.343 87.7238 374.499 87.7914C373.654 87.859 372.86 88.2166 372.249 88.8035C371.567 89.682 371.238 90.7834 371.326 91.8918V93.9673C371.217 95.1586 371.545 96.3487 372.249 97.3161C372.563 97.6533 372.948 97.9185 373.377 98.0917C373.804 98.2649 374.264 98.3418 374.725 98.3192C375.504 98.3745 376.276 98.1302 376.881 97.6374C377.341 97.2349 377.664 96.6984 377.803 96.103H380.261C380.119 96.7656 379.876 97.4014 379.538 97.9879C379.236 98.5117 378.837 98.9743 378.365 99.3517C377.887 99.7223 377.342 99.9976 376.761 100.164C376.11 100.357 375.434 100.452 374.755 100.444C373.953 100.486 373.15 100.373 372.389 100.114Z" fill="#1A182B"/>
<path d="M390.316 85.9159H401.486V100.354H399.059V88.0014H392.703V100.354H390.275L390.316 85.9159Z" fill="#1A182B"/>
<path d="M405.576 85.9157H407.742V88.3121C408.118 87.5054 408.726 86.8297 409.489 86.3722C410.252 85.9146 411.136 85.6963 412.023 85.7453C412.743 85.7383 413.456 85.8781 414.119 86.1563C414.748 86.4237 415.311 86.8279 415.764 87.3395C416.262 87.8992 416.634 88.5591 416.857 89.2747C417.135 90.1394 417.271 91.0436 417.257 91.9518V94.0273C417.27 94.9882 417.135 95.9453 416.857 96.8651C416.631 97.5997 416.259 98.2824 415.764 98.8705C415.321 99.406 414.758 99.8293 414.119 100.104C413.456 100.382 412.743 100.522 412.023 100.515C411.145 100.542 410.279 100.305 409.537 99.8327C408.887 99.3926 408.362 98.7911 408.013 98.0883V105.769H405.586L405.576 85.9157ZM411.522 98.4288C411.971 98.4472 412.418 98.3669 412.832 98.1937C413.246 98.0205 413.617 97.7586 413.919 97.4265C414.622 96.4589 414.95 95.2688 414.841 94.0775V91.9318C414.928 90.8297 414.599 89.735 413.919 88.8636C413.616 88.5324 413.245 88.2712 412.832 88.098C412.417 87.9248 411.971 87.8439 411.522 87.8609C411.046 87.833 410.569 87.9081 410.124 88.0811C409.68 88.2541 409.277 88.521 408.945 88.8636C408.253 89.7298 407.917 90.8265 408.003 91.9318V94.0074C407.895 95.2015 408.231 96.3935 408.945 97.3562C409.272 97.7109 409.671 97.9895 410.116 98.1736C410.562 98.3568 411.041 98.4405 411.522 98.4187V98.4288Z" fill="#1A182B"/>
<path d="M426.021 100.545C425.223 100.582 424.426 100.454 423.681 100.167C422.935 99.8804 422.257 99.442 421.689 98.8806C420.532 97.5387 419.952 95.7947 420.075 94.0275V91.9319C420.059 91.0373 420.205 90.1473 420.506 89.3049C420.755 88.5584 421.162 87.8745 421.699 87.2995C422.23 86.7581 422.873 86.3404 423.584 86.0763C425.167 85.5149 426.895 85.5149 428.477 86.0763C429.18 86.3456 429.816 86.7628 430.342 87.2995C430.88 87.8745 431.287 88.5584 431.536 89.3049C431.837 90.1473 431.983 91.0373 431.967 91.9319V94.0074C432.09 95.7747 431.509 97.5186 430.352 98.8606C429.786 99.4261 429.109 99.8679 428.363 100.157C427.618 100.448 426.82 100.579 426.021 100.545ZM426.021 98.4188C426.498 98.4481 426.977 98.3736 427.424 98.2004C427.871 98.0273 428.274 97.7595 428.608 97.4165C429.331 96.4578 429.671 95.2636 429.561 94.0676V91.9319C429.65 90.8185 429.309 89.7131 428.608 88.8436C427.906 88.1859 426.982 87.8198 426.021 87.8198C425.059 87.8198 424.135 88.1859 423.434 88.8436C422.733 89.7131 422.391 90.8185 422.482 91.9319V94.0074C422.37 95.2034 422.71 96.3976 423.434 97.3563C423.763 97.7102 424.163 97.9888 424.61 98.1728C425.057 98.3561 425.538 98.4406 426.021 98.4188Z" fill="#1A182B"/>
<path d="M440.74 100.545C439.931 100.577 439.124 100.432 438.377 100.118C437.631 99.8051 436.962 99.3307 436.418 98.73C435.349 97.5403 434.814 95.6451 434.814 93.0448V91.0395C434.814 89.756 434.875 88.5127 434.985 87.3195C435.065 86.2215 435.326 85.1443 435.757 84.131C436.156 83.1363 436.85 82.2881 437.747 81.7017C438.644 81.1152 439.699 80.8186 440.771 80.8523L442.615 80.7419C443.127 80.7419 443.618 80.6517 443.959 80.5916C444.3 80.5314 444.69 80.4512 444.961 80.3609C445.278 80.2652 445.586 80.1445 445.884 80V82.3162C445.716 82.4159 445.538 82.4966 445.352 82.5568C445.076 82.6323 444.794 82.6892 444.51 82.7273C444.149 82.7875 443.698 82.8376 443.147 82.8877C442.595 82.9378 441.903 82.998 441.081 83.0582C440.409 83.0637 439.748 83.2323 439.156 83.5495C438.657 83.8224 438.23 84.2109 437.913 84.6825C437.58 85.1659 437.348 85.7115 437.231 86.2867C437.089 86.9267 437.002 87.5774 436.97 88.2319C437.405 87.5857 437.968 87.0361 438.625 86.6176C439.341 86.1566 440.179 85.9225 441.031 85.9459C441.823 85.9347 442.61 86.0777 443.347 86.367C444.021 86.6366 444.629 87.0468 445.132 87.5702C445.645 88.1084 446.041 88.7467 446.295 89.4452C446.573 90.2375 446.708 91.0725 446.696 91.9118V93.9873C446.821 95.7532 446.245 97.4968 445.092 98.8405C444.525 99.4119 443.845 99.8587 443.096 100.152C442.347 100.446 441.544 100.58 440.74 100.545ZM440.74 98.4188C441.218 98.4481 441.697 98.3728 442.143 98.2004C442.589 98.0272 442.994 97.7595 443.327 97.4165C444.05 96.4577 444.39 95.2635 444.279 94.0675V91.9319C444.318 91.4162 444.253 90.8981 444.09 90.4076C443.926 89.9171 443.667 89.4639 443.327 89.0742C442.614 88.4419 441.693 88.0929 440.74 88.0929C439.787 88.0929 438.866 88.4419 438.154 89.0742C437.805 89.4599 437.536 89.9113 437.364 90.402C437.192 90.8927 437.119 91.4128 437.15 91.9319V94.0073C437.054 95.2098 437.412 96.4047 438.154 97.3563C438.481 97.7102 438.883 97.9888 439.33 98.1728C439.777 98.3561 440.258 98.4406 440.74 98.4188Z" fill="#1A182B"/>
<path d="M455.317 100.545C454.501 100.556 453.691 100.41 452.931 100.114C452.232 99.8462 451.607 99.417 451.105 98.8606C450.585 98.2766 450.186 97.5947 449.932 96.8551C449.638 95.9524 449.496 95.007 449.512 94.0576V91.9319C449.395 90.2467 449.938 88.5823 451.026 87.2895C452.17 86.2698 453.649 85.7063 455.182 85.7063C456.714 85.7063 458.193 86.2698 459.338 87.2895C460.449 88.6018 461.003 90.2967 460.882 92.0121V93.8369H451.938C451.847 95.0953 452.179 96.348 452.881 97.3964C453.184 97.7495 453.563 98.0298 453.991 98.2155C454.418 98.4013 454.882 98.4883 455.347 98.469C456.075 98.5251 456.796 98.2908 457.353 97.8173C457.754 97.4123 458.033 96.9012 458.155 96.3436H460.581C460.394 97.5772 459.763 98.7008 458.806 99.5023C457.794 100.234 456.564 100.601 455.317 100.545ZM455.207 87.7808C454.762 87.7561 454.316 87.8275 453.901 87.9901C453.486 88.1527 453.11 88.4028 452.8 88.7233C452.138 89.6333 451.822 90.7495 451.908 91.8717H458.586C458.662 90.7506 458.347 89.6378 457.693 88.7233C457.371 88.3965 456.982 88.1431 456.553 87.9805C456.124 87.8178 455.664 87.7497 455.207 87.7808Z" fill="#1A182B"/>
<path d="M464.312 85.9159H472.985V88.0114H466.739V100.354H464.312V85.9159Z" fill="#1A182B"/>
<path d="M480.806 100.545C480.008 100.582 479.211 100.454 478.465 100.167C477.72 99.8804 477.042 99.442 476.474 98.8806C475.317 97.5387 474.737 95.7947 474.86 94.0275V91.9319C474.846 91.0383 474.988 90.1492 475.281 89.3049C475.538 88.5597 475.948 87.8765 476.484 87.2995C477.015 86.7581 477.659 86.3404 478.369 86.0763C479.952 85.5149 481.679 85.5149 483.262 86.0763C483.964 86.3456 484.6 86.7628 485.127 87.2995C485.661 87.8771 486.068 88.5603 486.32 89.3049C486.617 90.1485 486.763 91.0377 486.751 91.9319V94.0074C486.874 95.7747 486.294 97.5186 485.137 98.8606C484.571 99.4261 483.894 99.8679 483.149 100.157C482.402 100.448 481.605 100.579 480.806 100.545ZM480.806 98.4188C481.284 98.4481 481.762 98.3736 482.208 98.2004C482.655 98.0273 483.059 97.7595 483.393 97.4165C484.116 96.4578 484.455 95.2636 484.345 94.0676V91.9319C484.435 90.8185 484.094 89.7131 483.393 88.8436C482.692 88.1859 481.767 87.8198 480.806 87.8198C479.845 87.8198 478.919 88.1859 478.219 88.8436C477.5 89.7056 477.141 90.8118 477.216 91.9319V94.0074C477.12 95.2099 477.478 96.4048 478.219 97.3563C478.547 97.7102 478.949 97.9888 479.395 98.1728C479.842 98.3561 480.323 98.4406 480.806 98.4188Z" fill="#1A182B"/>
<path d="M490.211 85.9159H492.718L497.51 94.9399L502.283 85.9159H504.659V100.354H502.343V89.8563L498.573 97.076H496.287L492.527 89.8563V100.354H490.211V85.9159Z" fill="#1A182B"/>
<path d="M293.34 29.46H310.65C315.61 29.46 319.357 30.65 321.89 33.03C323.173 34.2863 324.175 35.8004 324.83 37.4725C325.485 39.1445 325.778 40.9364 325.69 42.73C325.77 45.3088 325.073 47.8522 323.69 50.03C322.24 52.1386 320.129 53.7043 317.69 54.48L326.88 69.18H315.48L307.76 55.56H303.56V69.18H293.34V29.46ZM308.34 47.62C311.073 47.62 312.937 47.21 313.93 46.39C314.448 45.9384 314.853 45.3727 315.115 44.7377C315.377 44.1026 315.488 43.4153 315.44 42.73C315.496 42.0505 315.395 41.3672 315.145 40.7327C314.895 40.0982 314.504 39.5294 314 39.07C313 38.2567 311.137 37.85 308.41 37.85H303.59V47.62H308.34Z" fill="#231F20"/>
<path d="M230.931 69.92C228.391 69.9486 225.863 69.574 223.441 68.81C221.242 68.1153 219.245 66.8971 217.621 65.26C215.906 63.4704 214.617 61.3169 213.851 58.96C212.867 55.9194 212.404 52.7347 212.481 49.54V48.47C212.41 45.4091 212.891 42.3604 213.901 39.47C214.728 37.1569 216.068 35.0612 217.821 33.34C219.492 31.7458 221.497 30.5434 223.691 29.82C226.027 29.0544 228.472 28.6728 230.931 28.69C233.119 28.6742 235.3 28.9397 237.421 29.48C239.345 29.9633 241.158 30.812 242.761 31.98C244.328 33.1532 245.607 34.6683 246.501 36.41C247.536 38.4779 248.125 40.74 248.231 43.05H237.681C237.532 42.1051 237.224 41.1922 236.771 40.35C236.382 39.6507 235.863 39.0328 235.241 38.53C234.644 38.0728 233.965 37.7335 233.241 37.53C232.495 37.3249 231.725 37.2207 230.951 37.22C229.871 37.2084 228.8 37.4123 227.801 37.82C226.81 38.2285 225.947 38.8949 225.301 39.75C224.524 40.792 223.963 41.9785 223.651 43.24C223.226 44.9466 223.028 46.7017 223.061 48.46V49.65C223.022 51.5145 223.241 53.3754 223.711 55.18C224.057 56.4871 224.643 57.7182 225.441 58.81C226.085 59.684 226.947 60.3737 227.941 60.81C228.891 61.2073 229.911 61.408 230.941 61.4C232.593 61.4824 234.223 60.9874 235.551 60C236.815 58.8516 237.579 57.2545 237.681 55.55H248.231C248.16 57.8702 247.612 60.151 246.621 62.25C245.752 63.9906 244.488 65.5041 242.931 66.67C241.326 67.842 239.504 68.6818 237.571 69.14C235.398 69.6698 233.168 69.9317 230.931 69.92Z" fill="#231F20"/>
<path d="M329.381 29.46H340.161L345.551 54.08L351.791 29.46H361.441L368.441 54.2L374.231 29.46H383.871L373.641 69.18H363.421L356.331 43.53L349.811 69.18H339.591L329.381 29.46Z" fill="#231F20"/>
<path d="M408.08 61.57H394.8L392.08 69.18H382.43L396.9 29.46H407.12L421.59 69.18H410.81L408.08 61.57ZM397.7 53.74H405.19L401.44 41.94L397.7 53.74Z" fill="#231F20"/>
<path d="M426.131 29.46H435.131L450.511 51.59V29.46H461.291V69.18H451.641L436.341 47.05V69.18H426.131V29.46Z" fill="#231F20"/>
<path d="M491.5 61.57H478.22L475.49 69.18H465.85L480.32 29.46H490.53L505 69.18H494.22L491.5 61.57ZM481.11 53.74H488.6L484.86 41.94L481.11 53.74Z" fill="#231F20"/>
<path d="M138.11 52.09L86.0197 104.18L33.9297 52.09L55.0497 30.97L65.5497 20.47L86.0197 0L106.49 20.47L95.9897 30.97L86.0197 21L76.0497 30.97L65.5497 41.47L54.9297 52.09L86.0197 83.18L117.11 52.09L106.49 41.47L116.99 30.97L138.11 52.09Z" fill="#CC2127"/>
<path d="M172.04 52.09L86.02 138.11L0 52.09H21L86.02 117.11L151.04 52.09H172.04Z" fill="#CC2127"/>
</g>
<defs>
<clipPath id="clip0_702_2">
<rect width="505" height="139" fill="white"/>
</clipPath>
</defs>
</svg>
