<svg width="228" height="95" xmlns="http://www.w3.org/2000/svg"><g fill="none" fill-rule="evenodd"><path d="M35.48.67S24.72 13.56 0 13.56v30.78c0 16.07 7 31.56 19.61 41.5a47.55 47.55 0 0015.87 8.35 47.55 47.55 0 0015.85-8.35C64 75.9 71 60.41 71 44.34V13.56C46.23 13.56 35.48.67 35.48.67z" fill="#0D0F00" fill-rule="nonzero" opacity=".88"/><path d="M35.48 0S25.26 12.25 1.77 12.25v29.24c0 15.27 6.63 30 18.63 39.43a45.08 45.08 0 0015.08 7.93 45.17 45.17 0 0015.06-7.93c12-9.44 18.64-24.16 18.64-39.43V12.25C45.69 12.25 35.48 0 35.48 0z" fill="#007AFF" fill-rule="nonzero"/><path d="M27.79 57.51A11.72 11.72 0 0124.41 49a15 15 0 013.29-9.39 13.09 13.09 0 017.78-5v-6.8a20.35 20.35 0 00-12 6.14 20.62 20.62 0 00-6.26 15 18.62 18.62 0 004.28 12.28c3.433 4.153 8.1 6.293 14 6.42v-6.71a11.17 11.17 0 01-7.71-3.43zm11.67-23.23a12.51 12.51 0 015.47 1.15 16.41 16.41 0 015 4.11l6-3.87a22.35 22.35 0 00-4.72-4.52 20.36 20.36 0 00-5.52-2.62 21.191 21.191 0 00-6.28-.94c-.97.002-1.938.065-2.9.19v6.8a14.41 14.41 0 012.95-.3zm11.65 27.8c3.673-3.7 5.65-8.7 5.93-15H36.48v6.77h12.29a13.42 13.42 0 01-4.94 5.34 13 13 0 01-6.7 1.81h-.65v6.69h.59a18.9 18.9 0 0014.04-5.61z" fill="#070803" fill-rule="nonzero" opacity=".43"/><path d="M27.7 36.59A15 15 0 0024.41 46a11.72 11.72 0 003.38 8.53 11.17 11.17 0 007.69 3.43V31.58a13.09 13.09 0 00-7.78 5.01z"/><path d="M27.79 54.51A11.72 11.72 0 0124.41 46a15 15 0 013.29-9.39 13.09 13.09 0 017.78-5v-6.8a20.3 20.3 0 00-12 6.14 20.62 20.62 0 00-6.26 15 18.62 18.62 0 004.28 12.28c3.433 4.153 8.1 6.293 14 6.42v-6.71a11.17 11.17 0 01-7.71-3.43zm11.67-23.23a12.51 12.51 0 015.47 1.15 16.41 16.41 0 015 4.11l6-3.87a22.35 22.35 0 00-4.72-4.52 20.07 20.07 0 00-5.52-2.62 21.191 21.191 0 00-6.28-.94c-.97.002-1.938.065-2.9.19v6.8a14.41 14.41 0 012.95-.3zm11.65 27.8c3.673-3.7 5.65-8.7 5.93-15H36.48v6.77h12.29a13.42 13.42 0 01-4.94 5.34 12.94 12.94 0 01-6.7 1.81h-.65v6.69h.59a18.9 18.9 0 0014.04-5.61z" fill="#FFF" fill-rule="nonzero"/><path d="M50.54 75.92a45.17 45.17 0 01-15.06 7.93 45.08 45.08 0 01-15.08-7.93C8.4 66.48 1.77 51.76 1.77 36.49v5c0 15.27 6.63 30 18.63 39.43a45.08 45.08 0 0015.08 7.93 45.17 45.17 0 0015.06-7.93c12-9.44 18.64-24.16 18.64-39.43v-5c0 15.27-6.63 29.99-18.64 39.43zM121 35.38l-4.19 2.72a11.62 11.62 0 00-3.52-2.88 8.8 8.8 0 00-3.84-.82 9.15 9.15 0 00-7.56 3.74 10.44 10.44 0 00-2.32 6.59 8.27 8.27 0 002.38 6 7.91 7.91 0 005.86 2.42 9.17 9.17 0 004.71-1.25 9.47 9.47 0 003.48-3.76h-8.36l.61-4.75h13.55c-.2 4.427-1.587 7.943-4.16 10.55a13.28 13.28 0 01-9.87 3.91 12.57 12.57 0 01-10.26-4.52 13.09 13.09 0 01-3-8.63 14.49 14.49 0 014.4-10.55 14.26 14.26 0 0110.48-4.45 14.91 14.91 0 014.41.66 13.91 13.91 0 013.88 1.85 15.58 15.58 0 013.32 3.17zm7.87-5h14.41l-.62 4.75h-9.35l-.77 5.54h9.4l-.61 4.72h-9.44l-1 7.1h9.51l-.61 4.69h-14.58l3.66-26.8zm19.71 0H153l9.66 18.22 2.49-18.22H170l-3.64 26.8h-4.3l-9.76-18.42-2.52 18.42H145l3.58-26.8zm26.01 0h15.13l-10.63 22.13h8.42l-.62 4.67h-15.3l10.64-22.08h-8.29l.65-4.72zm19.93 0h14.41l-.61 4.75H199l-.77 5.54h9.4l-.63 4.72h-9.45l-1 7.1h9.5l-.61 4.69h-14.58l3.66-26.8zm33.32 3.73l-3.66 3.25c-1.5-2-2.91-2.92-4.21-2.92a2.32 2.32 0 00-1.6.57 1.83 1.83 0 00-.64 1.38 3.16 3.16 0 00.59 1.66 37.55 37.55 0 003.53 4 29.27 29.27 0 012.06 2.35 12.28 12.28 0 011.7 3 8 8 0 01.52 2.83 7.16 7.16 0 01-2.29 5.41 8.19 8.19 0 01-5.84 2.21c-3.64 0-6.61-1.73-8.91-5.19l3.87-3.12c1.553 2.373 3.22 3.56 5 3.56a3.05 3.05 0 002.18-.84 2.68 2.68 0 00.88-2 3.9 3.9 0 00-.54-1.9 24.59 24.59 0 00-3.06-3.64 27 27 0 01-3.52-4.27 7.59 7.59 0 01-1.13-3.82 6.84 6.84 0 011.62-4.45 6.77 6.77 0 015.5-2.46c3.167-.013 5.817 1.45 7.95 4.39zM102 67.73h2L102.88 76h-2l.12-.89a4.62 4.62 0 01-1.23.86 3.37 3.37 0 01-1.29.24A3.18 3.18 0 0195.85 75a4.38 4.38 0 01-1-2.81 4.73 4.73 0 01.62-2.33 4.63 4.63 0 011.67-1.73 4.28 4.28 0 012.19-.62 3 3 0 011.41.35c.438.234.807.58 1.07 1l.19-1.13zm-3 6.67a2.52 2.52 0 001.31-.33 2.69 2.69 0 00.94-1 3.12 3.12 0 00.38-1.46A2.2 2.2 0 00101 70a2 2 0 00-1.5-.6 2.47 2.47 0 00-1.85.8 2.89 2.89 0 00-.76 2.06 2.19 2.19 0 00.58 1.57 2 2 0 001.53.57zm6.3 1.6l1.13-8.27h3.2a2.67 2.67 0 011.88.59c.414.351.652.867.65 1.41a1.82 1.82 0 01-1.53 1.8 2.24 2.24 0 011.64 2.14c0 1.55-1.1 2.33-3.29 2.33h-3.68zm2.28-1.53h1c1 0 1.42-.32 1.42-.94 0-.62-.45-1.06-1.36-1.06h-.81l-.25 2zm.48-3.44h.94a1.18 1.18 0 00.76-.27.85.85 0 00.33-.68c0-.57-.36-.86-1.09-.86h-.67l-.27 1.81zm5.87-3.3h7.71l-.27 2h-2.73l-.87 6.3h-2.09l.86-6.3h-2.89l.28-2zm12.86-.22a4 4 0 012 .51c.6.338 1.09.841 1.41 1.45a4.61 4.61 0 01-.88 5.38 4.62 4.62 0 01-3.4 1.36 3.64 3.64 0 01-3.87-3.86 4.8 4.8 0 014.74-4.84zm-.14 1.93a2.22 2.22 0 00-1.91.89 3.17 3.17 0 00-.66 1.93 2.09 2.09 0 00.54 1.5c.38.386.909.59 1.45.56a2.31 2.31 0 002-.86 3.09 3.09 0 00.67-2 2 2 0 00-2-2l-.09-.02zm18.29-.01l-1.71.94a2.37 2.37 0 00-2-.93 2.9 2.9 0 00-1.46.36 2.5 2.5 0 00-1 1 2.81 2.81 0 00-.38 1.41 2 2 0 00.6 1.53 2.26 2.26 0 001.65.58 2.69 2.69 0 002.23-1l1.59 1.13a4.6 4.6 0 01-1.68 1.26 5.33 5.33 0 01-2.25.46 4.24 4.24 0 01-3-1.06 3.73 3.73 0 01-1.11-2.82 4.75 4.75 0 014.92-4.82 4 4 0 013.6 1.96zm7.72 6.57h-2.07l1.13-8.27h7.14L157.72 76h-2.08l.85-6.28h-3l-.83 6.28zm8.88 3h-2l1.54-11.29h2l-.12.89a4.09 4.09 0 011.22-.87 3.28 3.28 0 011.28-.24 3.15 3.15 0 012.54 1.23 4.39 4.39 0 011 2.81 4.76 4.76 0 01-.62 2.33 4.51 4.51 0 01-1.65 1.73 4.17 4.17 0 01-2.16.62 2.94 2.94 0 01-1.4-.35 2.8 2.8 0 01-1.06-1l-.57 4.14zm3.46-9.69a2.48 2.48 0 00-1.29.34 2.64 2.64 0 00-.93 1.06 3.19 3.19 0 00-.37 1.46 2.2 2.2 0 00.56 1.57 1.94 1.94 0 001.48.6 2.4 2.4 0 001.82-.8 2.88 2.88 0 00.74-2.06 2.17 2.17 0 00-.56-1.57 1.91 1.91 0 00-1.45-.6zm10.06-1.8a4 4 0 012 .51 3.52 3.52 0 011.41 1.45 4.61 4.61 0 01-.88 5.38 4.62 4.62 0 01-3.4 1.36 3.64 3.64 0 01-3.87-3.86 4.8 4.8 0 014.74-4.84zm-.14 1.93a2.22 2.22 0 00-1.91.89 3.17 3.17 0 00-.66 1.93 2.09 2.09 0 00.54 1.5c.38.386.909.59 1.45.56a2.31 2.31 0 001.95-.86 3.09 3.09 0 00.67-2 2 2 0 00-2-2l-.04-.02zm14.93-5.08l-.27 1.91c-.732.1-1.471.143-2.21.13a12.74 12.74 0 00-2.05.12 3.2 3.2 0 00-1.26.55 2.81 2.81 0 00-.89 1 6.65 6.65 0 00-.53 1.65 3.71 3.71 0 013.36-2.17 3.51 3.51 0 012.42.93 3.36 3.36 0 011 2.63 5 5 0 01-1.42 3.61 4.79 4.79 0 01-3.56 1.49 3.55 3.55 0 01-2-.58 3.74 3.74 0 01-1.3-1.42 5.38 5.38 0 01-.43-2.39 11 11 0 01.49-3.49 6.43 6.43 0 011.19-2.33 4.28 4.28 0 012.08-1.21 15.84 15.84 0 014-.36c.46.002.922-.021 1.38-.07zm-2.55 7a2 2 0 00-.52-1.39 1.85 1.85 0 00-1.44-.55 2.41 2.41 0 00-1.84.82 2.72 2.72 0 00-.75 1.91 2.09 2.09 0 00.54 1.52c.37.37.877.57 1.4.55a2.43 2.43 0 001.82-.82 2.82 2.82 0 00.79-1.99v-.05zm9.41 2.22l1.79.92a4.15 4.15 0 01-1.59 1.25 5.13 5.13 0 01-2.2.46 4.09 4.09 0 01-3-1.06 3.81 3.81 0 01-1.09-2.83 4.68 4.68 0 011.38-3.41 4.45 4.45 0 013.29-1.4 4.13 4.13 0 012.07.51 3.67 3.67 0 011.44 1.48 4.41 4.41 0 01.52 2.12 5.34 5.34 0 01-.07.83h-6.6a1.9 1.9 0 00.56 1.38 2.06 2.06 0 001.48.51 3 3 0 002.02-.76zm.52-2.62a2 2 0 00-2-1.54 2.35 2.35 0 00-1.35.4 2.53 2.53 0 00-.91 1.14h4.26zm4.39-3.23h4.81l-.27 2h-2.73l-.86 6.3h-2.09l1.14-8.3zm9.84-.22a4 4 0 012 .51 3.5 3.5 0 011.4 1.45 4.28 4.28 0 01.5 2.09 4.42 4.42 0 01-1.36 3.29 4.66 4.66 0 01-3.41 1.36 3.64 3.64 0 01-3.86-3.86 4.78 4.78 0 014.74-4.84h-.01zm-.15 1.93a2.2 2.2 0 00-1.9.89 3.12 3.12 0 00-.67 1.93 2.09 2.09 0 00.54 1.5c.383.383.91.586 1.45.56a2.29 2.29 0 002-.86 3.1 3.1 0 00.68-2 2 2 0 00-2.05-2l-.05-.02zm10.89 3.5l3.23-5.21h1.37l.95 8.27h-2l-.46-4.86-3.13 4.86h-.85l-1.76-4.85-1.76 4.85h-2l3.21-8.27h1.37l1.83 5.21z" fill="#0F1104" fill-rule="nonzero"/></g></svg>