<?xml version="1.0" encoding="UTF-8" standalone="no"?>
<svg
   xmlns:dc="http://purl.org/dc/elements/1.1/"
   xmlns:cc="http://creativecommons.org/ns#"
   xmlns:rdf="http://www.w3.org/1999/02/22-rdf-syntax-ns#"
   xmlns:svg="http://www.w3.org/2000/svg"
   xmlns="http://www.w3.org/2000/svg"
   viewBox="0 0 258.66666 258.66666"
   height="258.66666"
   width="258.66666"
   xml:space="preserve"
   id="svg2"
   version="1.1"><metadata
     id="metadata8"><rdf:RDF><cc:Work
         rdf:about=""><dc:format>image/svg+xml</dc:format><dc:type
           rdf:resource="http://purl.org/dc/dcmitype/StillImage" /></cc:Work></rdf:RDF></metadata><defs
     id="defs6" /><g
     transform="matrix(1.3333333,0,0,-1.3333333,0,258.66667)"
     id="g10"><g
       transform="scale(0.1)"
       id="g12"><path
         id="path14"
         style="fill:#ffffff;fill-opacity:1;fill-rule:evenodd;stroke:none"
         d="M 2.59766,1933.23 H 1930.16 V 5.66797 H 2.59766 V 1933.23" /><path
         id="path16"
         style="fill:#231f20;fill-opacity:1;fill-rule:evenodd;stroke:none"
         d="m 305.637,1054.8 c 14.347,-2.44 29.918,-7.02 37.551,-21.67 2.746,7.32 4.882,14.96 7.019,22.28 l 90.672,0.31 c -4.887,-16.18 -9.774,-32.06 -14.656,-48.24 h 68.382 l 14.958,47.93 353.82,0.31 31.14,-45.79 59.223,45.79 126.384,0.3 c 31.14,2.14 64.11,0.92 95.56,-0.3 14.04,-1.53 27.47,-6.41 36.94,-18.32 l 5.79,18.01 90.98,0.31 -31.14,-99.216 v -0.309 l 95.55,-0.304 0.92,2.136 30.52,97.693 388.32,-0.31 c 18.32,-1.52 38.16,-6.41 47.63,-24.42 10.07,-25.03 -0.92,-51.287 -14.05,-71.74 l -7.32,-7.937 c 5.8,-24.731 -8.55,-45.793 -13.74,-68.383 h -91.28 c 3.97,10.992 6.72,22.59 10.69,33.886 l -60.14,0.305 -11,-33.887 -489.97,-0.304 2.44,7.633 c -26.25,-9.77 -58.61,-7.024 -88.83,-8.856 -32.97,1.223 -69,-3.66 -97.082,9.77 -11.297,6.41 -18.93,17.707 -18.316,30.836 0.609,14.957 7.019,27.472 10.378,41.21 0.305,1.219 -0.613,3.055 -1.832,4.274 -1.832,1.832 -4.882,1.223 -7.019,0.613 L 922,937.27 c -6.414,-18.012 -11.602,-36.024 -17.402,-54.34 h -90.973 l 19.535,62.277 -26.023,34.57 c 0,0 -2.672,-10.683 -8.473,-16.254 -3.051,-4.578 -7.019,-9.156 -11.601,-12.82 7.328,-24.422 -8.543,-45.183 -12.821,-67.773 h -91.277 l 10.379,33.886 -60.141,0.305 C 629.539,905.52 625.875,894.531 622.52,882.93 H 455.836 c 4.883,17.097 10.379,33.886 15.566,50.675 H 403.02 l -15.872,-50.371 -90.671,-0.304 3.359,10.683 c -30.527,-15.566 -70.215,-10.379 -106.848,-11.906 -30.222,2.141 -63.496,-3.359 -88.226,12.215 -31.4417,25.031 -11.5979,68.687 -3.051,97.992 6.41,26.556 30.223,51.896 56.781,58.926 37.246,8.85 79.985,5.79 120.281,5.79 l 26.864,-1.83" /><path
         id="path18"
         style="fill:#ffffff;fill-opacity:1;fill-rule:evenodd;stroke:none"
         d="m 302.586,1035.27 c 8.852,-1.53 17.398,-3.67 22.894,-11.61 6.715,-10.37 1.833,-24.113 -0.914,-34.492 l -47.015,-0.309 c 0.304,3.055 2.137,6.719 0.304,9.465 -3.05,4.576 -8.242,4.576 -12.82,5.496 -21.676,1.22 -44.875,0.91 -66.855,0.31 -8.547,-1.23 -17.707,-2.45 -23.508,-10.079 -7.938,-13.738 -12.211,-29 -15.262,-44.571 -0.613,-3.968 0.305,-7.019 3.051,-9.769 3.664,-4.273 9.16,-3.969 14.043,-4.883 24.422,-0.609 50.371,-1.527 73.879,0.914 7.019,0.914 13.738,7.02 15.262,13.738 l 1.222,3.665 47.93,0.304 c -4.274,-18.621 -13.129,-41.519 -34.496,-47.015 -22.285,-4.579 -47.016,-3.356 -71.129,-3.969 -26.254,0 -53.731,-1.524 -79.07,2.14 -8.243,1.219 -17.399,6.411 -20.457,14.958 -4.27,12.515 -0.61,26.558 2.445,38.773 8.242,25.031 12.211,55.554 40.601,68.684 18.317,9.77 41.52,8.55 63.196,10.07 29.304,0.31 58.308,0 86.699,-1.82" /><path
         id="path20"
         style="fill:#ffffff;fill-opacity:1;fill-rule:evenodd;stroke:none"
         d="m 1181.79,1034.66 c 8.55,-2.14 18.01,-8.86 19.23,-18.63 0,-7.32 -2.13,-13.74 -3.66,-20.452 l -48.23,-0.305 c 1.22,3.051 1.52,6.407 -0.31,9.157 -4.27,3.66 -10.68,3.05 -16.48,3.36 -21.98,0.92 -44.27,0 -65.95,-1.22 -5.18,-1.22 -10.98,-2.75 -13.73,-8.246 -0.61,-2.746 -1.84,-5.801 -0.92,-8.547 2.75,-4.277 8.55,-3.664 13.13,-4.277 l 92.2,-1.219 c 11.9,-1.218 25.64,-1.527 31.74,-13.433 5.19,-12.821 -0.61,-26.864 -5.49,-38.157 -9.77,-22.589 -33.89,-28.695 -56.48,-29.308 -38.77,-1.832 -80.59,-3.055 -119.36,0 -9.164,1.832 -19.847,4.273 -24.425,13.738 -1.832,10.074 2.746,19.234 5.492,28.086 h 47.623 c -0.3,-3.359 -2.74,-7.019 -0.61,-10.379 3.36,-3.359 7.94,-3.664 12.82,-3.969 24.42,-0.308 50.07,-1.222 73.88,0.914 6.11,0.614 12.52,2.75 15.27,8.852 0.61,3.055 2.74,6.719 0.3,9.773 -3.36,3.661 -8.55,3.356 -13.43,3.969 l -90.97,1.219 c -11.91,1.832 -25.34,0.918 -32.36,12.516 -4.89,15.265 2.13,30.531 8.85,43.348 20.76,31.45 70.75,26.56 96.47,27.48 25.34,-0.61 58.31,-0.77 75.4,-4.27" /><path
         id="path22"
         style="fill:#ffffff;fill-opacity:1;fill-rule:evenodd;stroke:none"
         d="m 398.75,987.641 110.203,-0.305 c 5.496,15.874 10.074,32.054 15.266,47.934 l 48.844,0.3 -41.516,-132.492 h -48.848 c 5.192,16.789 10.688,33.578 15.875,50.676 l -110.207,0.305 C 383.18,937.27 377.684,920.176 372.496,903.383 l -48.848,-0.305 41.52,132.492 h 48.844 L 398.75,987.641" /><path
         id="path24"
         style="fill:#ffffff;fill-opacity:1;fill-rule:evenodd;stroke:none"
         d="m 762.031,1035.27 c 11.297,-1.53 24.422,-2.75 29.614,-14.36 4.273,-18.92 -3.207,-30.445 -13.739,-51.281 -7.023,-11.602 -16.562,-12.363 -33.886,-15.57 9.16,-2.438 23.203,-1.524 25.339,-13.735 1.907,-6.719 -6.414,-24.73 -9.773,-36.941 l -49.453,-0.305 c 3.894,12.211 9.234,22.895 6.105,28.695 -4.273,6.415 -12.515,5.192 -19.843,5.192 h -77.844 c -3.969,-10.992 -6.719,-22.594 -10.688,-33.582 l -49.148,-0.305 41.519,132.492 161.797,-0.3" /><path
         id="path26"
         style="fill:#ffffff;fill-opacity:1;fill-rule:evenodd;stroke:none"
         d="m 889.945,981.23 70.52,54.34 h 61.355 L 904.293,949.176 c -4.273,-15.571 -9.77,-30.528 -14.047,-45.793 l -49.148,-0.305 14.043,46.098 -63.801,86.394 h 61.359 l 37.246,-54.34" /><path
         id="path28"
         style="fill:#ffffff;fill-opacity:1;fill-rule:evenodd;stroke:none"
         d="m 1251.09,936.355 110.51,-0.308 -10.38,-32.969 h -159.66 l 41.82,132.492 h 48.85 l -31.14,-99.215" /><path
         id="path30"
         style="fill:#ffffff;fill-opacity:1;fill-rule:evenodd;stroke:none"
         d="m 1589.34,1005.96 -129.75,-0.31 -7.02,-22.587 h 120.89 l -8.24,-26.559 h -120.89 l -7.33,-23.203 129.45,-0.305 -9.16,-29.613 h -178.9 l 41.52,132.187 h 178.89 l -9.46,-29.61" /><path
         id="path32"
         style="fill:#ffffff;fill-opacity:1;fill-rule:evenodd;stroke:none"
         d="m 1794.18,1035.27 c 11.3,-1.53 24.73,-2.45 29.92,-14.97 4.96,-13.81 -2.29,-32.886 -9.15,-43.652 -8.79,-16.328 -22.52,-19.003 -39.09,-22.589 11.61,-1.371 24.96,-2.137 25.34,-12.821 0.31,-14.043 -4.2,-24.422 -9.46,-38.16 h -49.45 c 2.13,9.77 7.63,18.926 5.49,29.613 -2.44,3.356 -6.41,3.664 -10.38,3.965 l -86.7,0.309 c -3.66,-11.297 -7.63,-22.594 -10.68,-33.887 h -49.15 l 41.51,132.492 161.8,-0.3" /><path
         id="path34"
         style="fill:#231f20;fill-opacity:1;fill-rule:evenodd;stroke:none"
         d="m 728.145,1003.21 c 4.277,-0.92 10.992,-0.31 12.214,-6.105 -0.918,-9.464 -2.445,-19.843 -11.605,-25.035 -3.66,-2.976 -10.149,-3.355 -21.672,-2.746 h -78.457 l 10.684,34.196 88.836,-0.31" /><path
         id="path36"
         style="fill:#231f20;fill-opacity:1;fill-rule:evenodd;stroke:none"
         d="m 1760.3,1003.21 c 4.27,-0.92 10.38,-0.61 12.21,-5.8 -1.22,-9.465 -2.44,-19.844 -11.3,-25.34 -10.07,-4.273 -22.59,-2.441 -33.88,-2.746 h -66.86 l 10.69,34.196 89.14,-0.31" /><path
         id="path38"
         style="fill:#ffffff;fill-opacity:1;fill-rule:evenodd;stroke:none"
         d="m 254.352,984.586 c -2.141,-10.074 -5.497,-19.535 -7.633,-29.609 l -61.055,0.304 c -1.527,0.305 -2.746,2.137 -3.055,3.664 0.918,8.243 4.579,14.957 7.329,22.285 2.441,3.051 6.41,3.051 9.769,3.661 l 54.645,-0.305" /></g></g></svg>