<?xml version="1.0" encoding="UTF-8" standalone="no"?>
<svg
   xmlns:dc="http://purl.org/dc/elements/1.1/"
   xmlns:cc="http://creativecommons.org/ns#"
   xmlns:rdf="http://www.w3.org/1999/02/22-rdf-syntax-ns#"
   xmlns:svg="http://www.w3.org/2000/svg"
   xmlns="http://www.w3.org/2000/svg"
   viewBox="0 0 257.33334 257.33334"
   height="257.33334"
   width="257.33334"
   xml:space="preserve"
   id="svg2"
   version="1.1"><metadata
     id="metadata8"><rdf:RDF><cc:Work
         rdf:about=""><dc:format>image/svg+xml</dc:format><dc:type
           rdf:resource="http://purl.org/dc/dcmitype/StillImage" /></cc:Work></rdf:RDF></metadata><defs
     id="defs6" /><g
     transform="matrix(1.3333333,0,0,-1.3333333,0,257.33333)"
     id="g10"><g
       transform="scale(0.1)"
       id="g12"><path
         id="path14"
         style="fill:#ffffff;fill-opacity:1;fill-rule:evenodd;stroke:none"
         d="M 0,1927.56 H 1927.56 V 0 H 0 v 1927.56" /><path
         id="path16"
         style="fill:#231f20;fill-opacity:1;fill-rule:evenodd;stroke:none"
         d="m 1253.48,1072.41 c 25.28,-26.24 64.83,-28.16 64.83,-28.16 l 37.74,-2.52 c 27.81,-1.92 33.56,-15.33 33.56,-15.33 24.09,-42.31 84.36,-65.205 84.36,-65.205 -38.35,22.055 -66.15,70.945 -66.15,70.945 -18.21,26.85 -62.31,26.85 -62.31,26.85 h -25.88 c -33.56,0 -66.15,13.42 -66.15,13.42" /><path
         id="path18"
         style="fill:#231f20;fill-opacity:1;fill-rule:evenodd;stroke:none"
         d="m 1531.08,945.234 c -19.5,8.942 -44.32,10.86 -44.32,10.86 23.64,-8.309 31.95,-15.344 31.95,-15.344 17.89,-10.863 5.75,-30.031 5.75,-30.031 -15.14,-26.813 -74.58,-13.395 -74.58,-13.395 63.27,-42.164 89.8,-10.535 89.8,-10.535 16.3,19.5 12.46,29.078 7.99,41.223 0,0 57.52,-18.539 116.96,36.422 0,0 -63.92,-51.121 -133.55,-19.2" /><path
         id="path20"
         style="fill:#231f20;fill-opacity:1;fill-rule:evenodd;stroke:none"
         d="m 446.367,1395.4 c 0,0 -37.387,-4.47 -55.281,-4.16 0,0 -3.832,-0.64 -3.832,-3.19 0,0 1.277,-4.48 9.266,-4.48 0,0 33.226,0.97 49.847,11.83" /><path
         id="path22"
         style="fill:#231f20;fill-opacity:1;fill-rule:evenodd;stroke:none"
         d="m 836.105,1121.48 c 0,0 50.52,-4.26 133.61,-0.38 20.519,0.95 30.675,-2.19 30.675,-2.19 37.27,-5.55 43.15,-23.01 43.15,-23.01 0,0 66.14,-136.13 196.51,-132.787 l 61.56,-0.351 c 55.61,0 129.82,-54.606 129.82,-54.606 -15.34,11.504 -46.65,41.543 -46.65,41.543 -39.63,35.156 -103.62,35.43 -103.62,35.43 l -64.75,0.363 c -123.35,1.117 -155.62,112.328 -155.62,112.328 -16.1,34.71 -52.73,32.59 -52.73,32.59 -2.83,0.04 -5.6,0.14 -8.31,0.01 -121.422,-6.07 -161.195,3.64 -161.195,3.64 -24.598,6.86 -52.965,17.03 -79.981,31.9 0,0 5.75,27.48 -5.758,50.49 0,0 44.739,-17.9 85.645,-8.31 0,0 -65.832,16.62 -112.484,49.85 0,0 22.367,-64.55 3.832,-88.84 0,0 -12.145,-44.73 -123.34,-8.3 0,0 -46.02,17.89 -81.809,17.89 0,0 -28.765,-1.28 -28.765,-15.98 0,0 0,-7.02 7.031,-10.23 0,0 8.308,-5.74 3.191,-18.52 0,0 11.508,8.31 8.313,20.44 0,0 -1.282,6.4 4.476,7.68 0,0 15.34,6.39 58.793,-9.6 0,0 70.309,-31.95 110.574,-31.95 0,0 43.45,2.56 59.434,21.74 0,0 36.863,-14.94 88.398,-20.84" /><path
         id="path24"
         style="fill:#231f20;fill-opacity:1;fill-rule:evenodd;stroke:none"
         d="m 334.359,1233.46 c 14.383,-0.48 26.364,13.19 26.364,13.19 30.922,33.31 74.773,35.95 74.773,35.95 56.328,3.83 124.867,-50.81 124.867,-50.81 -48.41,64.46 -99.457,68.78 -99.457,68.78 -12.703,2.16 -17.738,15.34 -17.738,15.34 -16.293,29.96 -34.75,31.4 -34.75,31.4 9.109,-12.46 8.145,-29.48 8.145,-29.48 0,-31.4 -46.969,-35.95 -46.969,-35.95 -18.692,-36.91 -34.438,-34.76 -34.438,-34.76 -8.301,0 -10.543,4.8 -10.543,4.8 -1.914,2.88 1.282,5.43 1.282,5.43 5.113,3.19 9.906,7.35 9.906,7.35 31.961,24.61 32.273,52.41 32.273,52.41 -4.156,32.28 -31.312,32.91 -31.312,32.91 -12.473,0 -17.899,-7.67 -17.899,-7.67 -4.797,-5.75 -17.254,-28.12 -17.254,-28.12 -9.273,-15.34 -17.582,-13.1 -17.582,-13.1 -10.222,-0.63 -17.886,8.95 -17.886,8.95 -0.407,0.38 -0.75,0.75 -1.055,1.13 -3.883,4.88 -0.867,10.37 -0.867,10.37 12.14,19.5 37.703,24.29 37.703,24.29 0.894,0.25 1.758,0.52 2.617,0.78 0,0 2.266,0.54 4.777,1.38 l -0.14,0.15 c 33.097,11.65 35.887,29.01 35.887,29.01 -11.18,6.38 -21.727,6.08 -21.727,6.08 -20.125,-1.29 -26.836,-21.11 -26.836,-21.11 l -4.797,5.04 c 0,0 -2.156,2.64 1.203,5.75 0,0 15.09,18.61 70.375,26.92 0,0 45.379,7.67 104.176,0.32 0,0 -36.434,-38.03 -80.203,-22.06 0,0 -0.645,-14.05 37.699,-21.08 0,0 40.27,-4.15 91.078,-52.73 0,0 -13.414,29.41 -56.883,62.64 0,0 -3.507,2.23 -0.324,5.44 0,0 18.852,21.73 44.102,21.4 0,0 130.699,-6.71 204.195,-83.41 0,0 -2.555,12.79 -13.734,31.33 0,0 -2.246,2.23 -0.965,3.83 0,0 0.965,3.19 13.742,0.64 0,0 46.652,-7.67 154.981,-47.3 l 117.277,-41.86 c 0,0 40.908,-15.02 63.598,-25.24 0,0 -45.704,1.59 -69.993,-10.87 0,0 -0.992,-0.63 -0.519,-1.48 0,0 0.246,-0.84 2.273,-0.48 0,0 38.479,10.55 75.619,-5.75 0,0 38,-15.45 67.95,-39.42 0,0 20.37,-17.74 33.31,-32.12 0,0 30.2,-28.28 65.19,-48.41 0,0 -28.28,26.84 -51.76,51.76 0,0 -33.56,40.27 -48.9,53.69 0,0 115.72,-54.29 220.02,-113.12 18.69,-10.55 79.08,-45.54 79.08,-45.54 58.56,-36.34 115.92,-59.519 115.92,-59.519 52.41,-23.64 95.87,1.289 95.87,1.289 l 2.08,0.914 c 28.11,14.575 34.55,9.985 34.55,9.985 13.9,-5.266 9.91,-19.649 9.91,-19.649 12.13,12.457 11.05,19.223 11.05,19.223 -0.4,21.357 -23.78,19.607 -23.78,19.607 -6.07,-0.69 -26.16,-11.89 -39,-19.353 l -3.76,-2.43 c -33.93,-17.562 -81.17,-1.265 -81.17,-1.265 -62.63,24.908 -117.35,58.878 -117.35,58.878 0,0 -107.37,63.74 -199.88,110.24 0,0 -115.52,59.92 -270.347,127.02 0,0 -295.27,136.61 -512.887,136.61 0,0 -112.797,1.45 -150.988,-41.94 0,0 -4.313,-6.71 -3.36,-12.46 0,0 0.481,-1.92 -0.953,-3.12 0,0 -16.777,-11.02 -30.433,-26.85 0,0 -8.149,-7.9 -1.438,-18.68 0,0 4.785,-7.67 9.11,-13.43 l 0.066,0.06 c 1.992,-2.68 13.426,-16.93 30.367,-15.63 0,0 4.797,0.24 7.192,-1.2 0,0 4.312,-3.83 9.586,-5.75 h 7.91 c 0,0 1.683,0.23 1.914,1.68 0,0 -0.481,4.31 -1.438,7.18 0,0 -4.558,5.99 -2.64,13.18 0,0 1.918,11.99 9.355,20.62 0,0 8.145,7.67 17.731,0.71 0,0 18.218,-15.81 8.875,-34.75 0,0 -7.68,-14.38 -16.067,-14.38 0,0 -4.07,-1.19 -8.387,2.88 l -5.515,0.72 c 0,0 -1.68,0 -1.68,-1.44 l 0.246,-4.07 c 0,0 0,-2.41 1.196,-3.59 0,0 2.16,-2.64 -0.239,-6 0,0 -5.265,-4.8 -2.636,-11.74 0,0 4.796,-20.14 21.089,-20.14 z m -6.23,138.61 c 0,0 -7.984,-12.46 -22.363,-10.86 0,0 3.511,15.34 22.363,10.86 z m -42.899,-14.46 c 5.512,2.16 6.239,-0.96 6.239,-0.96 0.234,-2.63 -2.887,-3.59 -2.887,-3.59 -15.094,-9.11 -27.555,-23.26 -27.555,-23.26 -2.156,-2.39 -3.593,-1.19 -3.593,-1.19 -2.641,2.4 0,5.52 0,5.52 11.742,12.94 27.796,23.48 27.796,23.48" /><path
         id="path26"
         style="fill:#231f20;fill-opacity:1;fill-rule:evenodd;stroke:none"
         d="m 580.898,1296.34 c -30.675,-43.46 -6.39,-74.14 -6.39,-74.14 -82.449,2.56 -106.098,-20.45 -106.098,-20.45 -40.265,-31.31 -25.562,-67.74 -25.562,-67.74 23.007,-36.44 49.859,-10.87 49.859,-10.87 -38.352,-7.68 -37.711,26.2 -37.711,26.2 8.305,58.8 85,56.25 85,56.25 65.828,0 168.082,-18.54 168.082,-18.54 -77.332,17.9 -100.98,37.07 -100.98,37.07 -32.59,19.81 -26.2,72.22 -26.2,72.22" /><path
         id="path28"
         style="fill:#231f20;fill-opacity:1;fill-rule:evenodd;stroke:none"
         d="m 1189.78,665.746 c 2.6,10.766 3.81,22.649 3.81,43.664 v 112.582 h -24.87 V 700.957 c 0,-14.602 -1.24,-24.055 -2.83,-31.801 -6.89,-33.535 -32.27,-45.879 -70.37,-45.879 -18.04,0 -39.43,4.196 -51.77,18.555 -10.89,12.27 -13.19,28.891 -13.19,56.754 V 821.992 H 990.145 V 696.457 c 0,-25.625 2.679,-49.59 20.375,-66.961 16.33,-16.348 48.07,-23.613 84.16,-23.613 53.16,0 84.95,17.738 95.1,59.863" /><path
         id="path30"
         style="fill:#231f20;fill-opacity:1;fill-rule:evenodd;stroke:none"
         d="m 1472.29,610.594 h 48.09 l -103.2,211.398 h -25.12 L 1286.59,610.594 h 25.65 l 28.53,59.359 h 104.88 z m -77.81,171.312 44.49,-97.57 h -91.29 z" /><path
         id="path32"
         style="fill:#231f20;fill-opacity:1;fill-rule:evenodd;stroke:none"
         d="m 509.844,610.594 h 48.09 L 454.715,821.992 h -25.11 L 324.141,610.594 h 25.64 l 28.567,59.359 H 483.215 Z M 432,781.906 476.535,684.336 H 385.25 Z" /><path
         id="path34"
         style="fill:#231f20;fill-opacity:1;fill-rule:evenodd;stroke:none"
         d="m 778.031,605.898 c 26.035,0 59.653,5.012 83.36,15.7 v 86.172 h -40.403 v -77.172 c -13.031,-5.004 -31.961,-7.446 -45.629,-7.446 -53.769,0 -88.722,36.84 -88.722,90.633 0,59.442 39.582,95.356 97.027,95.356 25.211,0 51.066,-10.075 70.719,-24.731 v 25.133 c -21.695,11.012 -49.524,16.449 -73.57,16.449 -39.735,0 -81.836,-12.015 -109.555,-42.078 -17.699,-19.371 -29.391,-46.426 -29.391,-72.805 0,-81.168 66.348,-105.211 136.164,-105.211" /><path
         id="path36"
         style="fill:#231f20;fill-opacity:1;fill-rule:evenodd;stroke:none"
         d="m 1762.01,610.594 h 46.57 l -62.15,85.828 c 21.95,7.785 46.59,27.57 46.59,60.254 0,17.871 -4.91,31.746 -13.98,41.726 -17.26,19.09 -48.32,23.59 -79.33,23.59 h -76.49 V 610.594 h 40.42 v 81.168 h 42.37 z m -68.65,196.73 c 32.4,0 58.37,-13.527 58.37,-49.258 0,-17.839 -6.42,-31.046 -17.1,-39.648 -10.17,-8.18 -23.21,-12.234 -44.99,-12.234 h -26 v 101.14 h 29.72" /><path
         id="path38"
         style="fill:#231f20;fill-opacity:1;fill-rule:evenodd;stroke:none"
         d="m 153.398,567.133 c 36.739,18.019 51.774,55.773 51.774,94.851 v 160.008 h -40.43 V 689.031 c 0,-18.679 0,-37.402 -2.344,-56.121 -3.996,-33.726 -15.687,-54.113 -43.418,-74.133 12.036,0 23.711,3.34 34.418,8.356" /></g></g></svg>