<?xml version="1.0" encoding="UTF-8" standalone="no"?>
<svg
   xmlns:dc="http://purl.org/dc/elements/1.1/"
   xmlns:cc="http://creativecommons.org/ns#"
   xmlns:rdf="http://www.w3.org/1999/02/22-rdf-syntax-ns#"
   xmlns:svg="http://www.w3.org/2000/svg"
   xmlns="http://www.w3.org/2000/svg"
   id="375e12ac-bfda-11ec-8b4d-0242ac110006"
   version="1.1"
   width="792.0pt"
   viewBox="0 0 792.0 612.0"
   height="612.0pt">
  <metadata
     id="metadata19">
    <rdf:RDF>
      <cc:Work
         rdf:about="">
        <dc:format>image/svg+xml</dc:format>
        <dc:type
           rdf:resource="http://purl.org/dc/dcmitype/StillImage" />
      </cc:Work>
    </rdf:RDF>
  </metadata>
  <defs
     id="defs17" />
  <g
     id="g2" />
  <g
     id="g8">
    <path
       id="path4"
       d="M 148.0405,293.5992 L 188.7019,293.5992 188.7019,308.1305 C 188.7019,341.7658 233.7054,341.803 233.7054,306.6799 L 233.7054,204.6362 274.6602,204.6362 274.6602,309.9428 C 274.6602,327.9891 269.11,341.7248 258.0488,351.183 246.9875,360.6411 230.945,365.3506 209.8489,365.3506 188.9796,365.3506 173.3945,360.3146 163.0547,350.2758 152.7539,340.239 147.583,325.0547 147.583,304.725 147.583,302.4787 147.7355,298.9637 148.0405,294.217 L 148.0405,293.5992 Z M 322.5238,295.1945 L 358.1923,295.1945 C 357.7504,288.2504 356.032,283.0385 353.0057,279.5781 349.9618,276.0963 345.6394,274.3623 339.9465,274.3623 334.6974,274.3623 330.5392,276.2117 327.4874,279.8968 324.4396,283.578 322.776,288.6727 322.5238,295.1945 Z M 357.9968,330.7242 L 396.3553,330.7242 C 393.5714,342.9916 387.468,352.2621 378.045,358.5708 368.6533,364.8814 356.1943,368.0172 340.7617,368.0172 323.4661,368.0172 309.7422,362.6606 299.5919,351.9454 289.4398,341.2634 284.349,326.8474 284.349,308.7288 284.349,289.8711 289.5356,274.9957 299.9067,264.0693 310.2798,253.1782 324.4142,247.714 342.2494,247.714 360.1785,247.714 374.2191,253.6357 384.3693,265.5141 394.5196,277.3925 397.6573,293.8573 397.6573,314.9338 L 397.6573,317.6122 322.5238,317.7177 C 322.8346,329.4612 327.8217,342.0904 341.055,342.0904 354.2882,342.0904 356.2177,336.6086 357.9968,330.7242 Z M 443.7321,295.1945 L 479.4006,295.1945 C 478.9588,288.2504 477.2403,283.0385 474.214,279.5781 471.1702,276.0963 466.8477,274.3623 461.1548,274.3623 455.9057,274.3623 451.7475,276.2117 448.6958,279.8968 445.648,283.578 443.9843,288.6727 443.7321,295.1945 Z M 479.2051,330.7242 L 517.5636,330.7242 C 514.7797,342.9916 508.6763,352.2621 499.2533,358.5708 489.8617,364.8814 477.4026,368.0172 461.9701,368.0172 444.6744,368.0172 430.9505,362.6606 420.8003,351.9454 410.6481,341.2634 405.5573,326.8474 405.5573,308.7288 405.5573,289.8711 410.7439,274.9957 421.115,264.0693 431.4881,253.1782 445.6226,247.714 463.4578,247.714 481.3868,247.714 495.4275,253.6357 505.5777,265.5141 515.7279,277.3925 518.8656,293.8573 518.8656,314.9338 L 518.8656,317.6122 443.7321,317.7177 C 444.0429,329.4612 449.0301,342.0904 462.2633,342.0904 475.4965,342.0904 477.4261,336.6086 479.2051,330.7242 Z M 604.8981,312.3728 C 604.8981,301.2725 603.1895,293.0616 599.7644,287.6913 596.3432,282.319 591.1293,279.6133 584.1226,279.6133 576.5862,279.6133 571.0478,282.231 567.5836,287.4684 564.1194,292.7019 562.4107,301.0066 562.4107,312.3728 562.4107,323.0646 564.1604,331.0585 567.7048,336.3858 571.2511,341.7111 576.5862,344.3757 583.6769,344.3757 590.6425,344.3757 595.9365,341.6642 599.5239,336.2978 603.1074,330.9236 604.8981,322.9786 604.8981,312.3728 Z M 523.5556,402.8822 L 523.5556,252.0013 561.4958,252.0013 561.4958,265.7624 561.5622,267.2892 C 562.2406,266.1866 562.9601,265.1387 563.7127,264.1515 571.2081,254.3434 581.2645,248.8127 597.567,249.4325 630.0723,250.6739 644.4981,281.67 644.4981,310.8147 644.4981,340.0142 631.4095,371.198 598.5503,370.7835 583.9682,370.6017 572.8112,366.2577 565.1477,357.2688 L 565.1477,402.8822 523.5556,402.8822 Z"
       style="fill-rule:evenodd;fill:#2d2c2b;" />
    <path
       id="path6"
       d="M 631.4701,383.4967 L 631.4701,386.2239 633.9354,386.2239 C 634.8249,386.2239 635.4524,386.1125 635.8199,385.8955 636.1875,385.6765 636.3732,385.3129 636.3732,384.8026 636.3732,384.3256 636.1992,383.9894 635.8512,383.7919 635.5052,383.5964 634.8659,383.4967 633.9354,383.4967 L 631.4701,383.4967 Z M 630.0586,382.5525 L 634.1719,382.5525 C 634.8386,382.5525 635.3312,382.574 635.646,382.617 635.9607,382.6619 636.2442,382.7343 636.4905,382.8359 636.9401,383.0216 637.2803,383.2817 637.513,383.612 637.7476,383.9424 637.8629,384.3334 637.8629,384.7811 637.8629,385.2151 637.7397,385.5866 637.4954,385.8935 637.249,386.2004 636.8854,386.4409 636.4006,386.6168 636.8111,386.7048 637.1083,386.8514 637.2803,387.0587 637.4563,387.2659 637.5638,387.6178 637.6087,388.1124 L 637.7319,389.4398 C 637.7573,389.7233 637.8062,389.9344 637.8785,390.0752 637.9567,390.214 638.0662,390.3156 638.2167,390.3743 L 638.2167,390.5972 636.5511,390.5972 C 636.4162,390.429 636.3243,390.0713 636.2715,389.5219 636.2715,389.5063 636.2715,389.4946 636.2715,389.4887 L 636.1816,388.4408 C 636.1327,387.9013 635.9842,387.5533 635.7281,387.393 635.4759,387.2327 634.8386,387.1525 633.82,387.1525 L 631.4858,387.1525 631.4858,390.5972 630.0586,390.5972 630.0586,382.5525 Z"
       style="fill-rule:evenodd;fill:#2d2c2b;" />
  </g>
  <g
     id="g10" />
  <g
     id="g12" />
</svg>
