<?xml version="1.0" encoding="UTF-8" standalone="no"?>
<svg
   xmlns:dc="http://purl.org/dc/elements/1.1/"
   xmlns:cc="http://creativecommons.org/ns#"
   xmlns:rdf="http://www.w3.org/1999/02/22-rdf-syntax-ns#"
   xmlns:svg="http://www.w3.org/2000/svg"
   xmlns="http://www.w3.org/2000/svg"
   viewBox="0 0 816.37335 177.64"
   height="177.64"
   width="816.37335"
   xml:space="preserve"
   id="svg2"
   version="1.1"><metadata
     id="metadata8"><rdf:RDF><cc:Work
         rdf:about=""><dc:format>image/svg+xml</dc:format><dc:type
           rdf:resource="http://purl.org/dc/dcmitype/StillImage" /></cc:Work></rdf:RDF></metadata><defs
     id="defs6" /><g
     transform="matrix(1.3333333,0,0,-1.3333333,0,177.64)"
     id="g10"><g
       transform="scale(0.1)"
       id="g12"><path
         id="path14"
         style="fill:#fff;fill-opacity:1;fill-rule:nonzero;stroke:none"
         d="M 4517.73,117.707 4763.81,1214.56 H 6122.84 V 117.707 H 4517.73" /><path
         id="path16"
         d="M 1269.02,1332.28 C 568.145,1332.28 0,1034.05 0,666.133 0,298.242 568.145,0 1269.02,0 c 700.87,0 1269,298.242 1269,666.133 0,367.917 -568.13,666.147 -1269,666.147 z M 108.984,724.984 c 0,292.436 502.356,530.126 1127.786,537.356 L 411.445,362.539 C 223.605,458.113 108.984,585.305 108.984,724.984 Z M 1360.97,1064.75 1775.64,422.707 729.629,609.973 Z m -94.96,-877.492 c -322.17,0 -613.44,61.25 -823.186,160.008 L 2045.49,327.617 C 1839.84,240.449 1566.29,187.258 1266.01,187.258 Z m 850.53,173.301 -815.72,901.711 c 622.88,-8.54 1122.22,-245.77 1122.22,-537.286 0,-140.597 -116.25,-268.605 -306.5,-364.425" /><path
         id="path18"
         d="M 3350.36,1121.66 V 981.777 H 3184.55 V 226.836 h -279.21 v 754.941 h -165.09 v 139.883 h 610.11" /><path
         id="path20"
         d="M 5206.62,1121.66 5337.4,226.836 h -237.31 l -11.2,210.559 h -146.51 l -34.94,-210.559 h -211.41 l 194.36,894.824 z m -160.2,-541.191 -17.95,401.308 -76.5,-401.308 z" /><path
         id="path22"
         d="m 3884.22,1121.66 130.83,-894.824 h -237.38 l -11.19,210.559 h -146.51 l -34.92,-210.559 h -211.4 l 194.34,894.824 z m -160.17,-541.191 -18,401.308 -76.48,-401.308 z" /><path
         id="path24"
         d="M 4632.71,981.777 H 4334.93 V 226.836 H 4103.8 v 895.424 h 528.91 V 981.777" /><path
         id="path26"
         d="m 5866.93,679.508 c 40.63,-11.442 153.39,-32.992 159.02,-184.457 2.64,-71.156 -9.72,-126.328 -29.18,-165.656 -19.43,-39.211 -53.06,-69.11 -100.84,-89.543 -47.73,-20.45 -108.98,-30.704 -183.68,-30.704 -84.87,0 -151.55,11.875 -199.99,35.657 -48.38,23.808 -101.67,64.875 -101.67,216.406 v 70.742 h 226.71 v -145.39 c 0.31,-15.313 21.38,-52.95 77.54,-51.458 26.13,0.618 58.07,18.458 64.12,50.696 5.82,69.043 11.51,153.957 -8.41,197.363 -7.59,16.711 -26.25,32.141 -52.11,36.789 -18.52,3.399 -68.78,2.293 -120.95,3.024 l 1.68,117.332 c 63.64,0 96.85,-1.418 112.35,-0.231 72.21,0.305 68.09,85.152 68.2,134.02 0.18,46.816 6.08,122.441 -72.1,122.211 -55.09,-0.172 -68.98,-42.918 -68.98,-77.168 v -73.489 l -228.05,-0.882 v 76.281 c -2.92,200.609 178.51,214.159 280.69,214.159 127.72,0 196.08,-22.84 241.61,-64.44 45.62,-41.64 68.89,-88.993 72.94,-165.864 9.4,-179.285 -97.77,-207 -138.9,-225.398" /></g></g></svg>