<svg width="20" height="20" viewBox="0 0 20 20" fill="none" xmlns="http://www.w3.org/2000/svg">
<path fill-rule="evenodd" clip-rule="evenodd" d="M6.24881 0.625C6.08366 0.625031 5.92523 0.690421 5.80814 0.806886L2.05689 4.55813C1.999 4.61634 1.95314 4.68537 1.92193 4.7613C1.89072 4.83722 1.87478 4.91855 1.875 5.00064V14.3757C1.875 15.4037 2.72268 16.2489 3.75063 16.2489H13.1257C14.1536 16.2489 14.9983 15.4037 14.9983 14.3757V2.50001C14.9983 1.47208 14.1536 0.625 13.1257 0.625H6.24881ZM6.87382 1.87501H13.1257C13.4828 1.87501 13.7507 2.14296 13.7507 2.50001V14.3757C13.7507 14.7328 13.4828 15.0013 13.1257 15.0013H3.75063C3.39357 15.0013 3.12501 14.7328 3.12501 14.3757V5.62626H4.99819C6.02614 5.62626 6.87382 4.77858 6.87382 3.75063V1.87501ZM5.6232 2.76125V3.75063C5.6232 4.10769 5.35526 4.37564 4.99819 4.37564H4.00881L5.6232 2.76125ZM16.2489 3.12563C16.1656 3.12379 16.0829 3.13861 16.0055 3.16919C15.928 3.19978 15.8575 3.24552 15.798 3.30374C15.7384 3.36196 15.6912 3.43148 15.6589 3.50822C15.6266 3.58496 15.61 3.66738 15.61 3.75063C15.61 3.83389 15.6266 3.9163 15.6589 3.99305C15.6912 4.06979 15.7384 4.13931 15.798 4.19753C15.8575 4.25574 15.928 4.30149 16.0055 4.33207C16.0829 4.36266 16.1656 4.37747 16.2489 4.37564C16.6059 4.37564 16.8739 4.64359 16.8739 5.00064V17.4995C16.8739 17.8566 16.6059 18.1245 16.2489 18.1245H6.24881C5.89175 18.1245 5.6232 17.8566 5.6232 17.4995C5.62867 17.4142 5.6166 17.3287 5.58773 17.2483C5.55885 17.1679 5.5138 17.0942 5.45534 17.0319C5.39688 16.9695 5.32626 16.9199 5.24784 16.8859C5.16942 16.8519 5.08487 16.8344 4.99941 16.8344C4.91396 16.8344 4.82941 16.8519 4.75099 16.8859C4.67257 16.9199 4.60195 16.9695 4.54349 17.0319C4.48503 17.0942 4.43997 17.1679 4.4111 17.2483C4.38223 17.3287 4.37016 17.4142 4.37563 17.4995C4.37563 18.5275 5.22086 19.3751 6.24881 19.3751H16.2489C17.2768 19.3751 18.1245 18.5275 18.1245 17.4995V5.00064C18.1245 3.9727 17.2768 3.12563 16.2489 3.12563ZM6.24881 8.12444C6.08548 8.12811 5.93007 8.19557 5.81586 8.31238C5.70164 8.42919 5.63768 8.58607 5.63768 8.74945C5.63768 8.91282 5.70164 9.0697 5.81586 9.18652C5.93007 9.30333 6.08548 9.37079 6.24881 9.37445H10.6251C10.7083 9.37632 10.7911 9.36154 10.8686 9.33097C10.946 9.3004 11.0166 9.25466 11.0762 9.19644C11.1357 9.13822 11.183 9.06868 11.2153 8.99192C11.2476 8.91517 11.2643 8.83273 11.2643 8.74945C11.2643 8.66617 11.2476 8.58373 11.2153 8.50697C11.183 8.43021 11.1357 8.36068 11.0762 8.30246C11.0166 8.24424 10.946 8.1985 10.8686 8.16793C10.7911 8.13736 10.7083 8.12257 10.6251 8.12444H6.24881ZM6.24881 10.6251C6.16558 10.6232 6.08282 10.638 6.00538 10.6686C5.92795 10.6992 5.8574 10.745 5.79789 10.8032C5.73837 10.8614 5.69109 10.9309 5.6588 11.0077C5.62652 11.0844 5.60989 11.1668 5.60989 11.2501C5.60989 11.3333 5.62652 11.4157 5.6588 11.4925C5.69109 11.5692 5.73837 11.6388 5.79789 11.697C5.8574 11.7552 5.92795 11.8009 6.00538 11.8315C6.08282 11.8621 6.16558 11.8769 6.24881 11.8751H8.74944C8.83268 11.8769 8.91544 11.8621 8.99287 11.8315C9.07031 11.8009 9.14085 11.7552 9.20037 11.697C9.25988 11.6388 9.30717 11.5692 9.33945 11.4925C9.37173 11.4157 9.38836 11.3333 9.38836 11.2501C9.38836 11.1668 9.37173 11.0844 9.33945 11.0077C9.30717 10.9309 9.25988 10.8614 9.20037 10.8032C9.14085 10.745 9.07031 10.6992 8.99287 10.6686C8.91544 10.638 8.83268 10.6232 8.74944 10.6251H6.24881ZM10.6245 10.6251C10.2793 10.6251 9.99945 10.9049 9.99945 11.2501C9.99945 11.5953 10.2793 11.8751 10.6245 11.8751C10.9696 11.8751 11.2495 11.5953 11.2495 11.2501C11.2495 10.9049 10.9696 10.6251 10.6245 10.6251Z" fill="black"/>
</svg>
